# xmcd
#
# Track frame offsets:
#  150
#  20003
#  37954
#  52983
#  68237
#  88434
#  107108
#  120801
#  135797
#  155941
#  163449
#  184963
#  194037
#  209532
#  229879
#  242557
#
# Disc length: 3474 seconds
#
# Revision: 2
# Processed by: cddbd v1.5PL3 Copyright (c) Steve Scherf et al.
# Submitted via: AltoMP3_Maker 3.0
#
DISCID=e90d9010
DTITLE=Swolly Wolly Hula Bula Humble Bumble Band - Slet Skjult Begær
DYEAR=1900
DGENRE=
TTITLE0=Tralalulalej
TTITLE1=Svigermor for 30. gang
TTITLE2=Hverdag Hver Dag
TTITLE3=Sikker Sex i Cyberspace
TTITLE4=Fedtpustnings Opera
TTITLE5=Indendørs Isbjerge Blues
TTITLE6=Min krop er taget på ferie uden mig
TTITLE7=Hænderne op - Jeg elsker dig!
TTITLE8=Lederhosen Evangeliet
TTITLE9=Grineren
TTITLE10=Hjerter i Sne
TTITLE11=Så tag dog den telefon!
TTITLE12=Overdosis Kokosmælk
TTITLE13=Verdens Næstfedeste nation
TTITLE14=Aldrig mere 16 år!
TTITLE15=Massepsykose - Live 2003
EXTD=
EXTT0=
EXTT1=
EXTT2=
EXTT3=
EXTT4=
EXTT5=
EXTT6=
EXTT7=
EXTT8=
EXTT9=
EXTT10=
EXTT11=
EXTT12=
EXTT13=
EXTT14=
EXTT15=
PLAYORDER=
